<svg xmlns="http://www.w3.org/2000/svg" baseProfile="basic" viewBox="0 0 120 120"><polygon points="24,108 24,20.182 64.342,20.182 97,45.273 97,108" opacity=".35"/><rect width="73" height="88" x="24" y="16" fill="#52afff"/><rect width="37" height="7" x="47" y="49" opacity=".35"/><rect width="37" height="23" x="47" y="29" fill="#a4e2f1"/><circle cx="33.5" cy="32.5" r="5.5" fill="#0037ff"/><rect width="17" height="7" x="17" y="29" fill="#a4e2f1"/><circle cx="33.5" cy="51.5" r="5.5" fill="#0037ff"/><rect width="17" height="7" x="17" y="48" fill="#a4e2f1"/><circle cx="33.5" cy="70.5" r="5.5" fill="#0037ff"/><rect width="17" height="7" x="17" y="67" fill="#a4e2f1"/><circle cx="33.5" cy="89.5" r="5.5" fill="#0037ff"/><rect width="17" height="7" x="17" y="86" fill="#a4e2f1"/><rect width="17" height="4" x="17" y="36" opacity=".35"/><rect width="17" height="4" x="17" y="55" opacity=".35"/><rect width="17" height="4" x="17" y="74" opacity=".35"/><rect width="17" height="4" x="17" y="93" opacity=".35"/></svg>